<svg id="Camada_1" data-name="Camada 1" xmlns="http://www.w3.org/2000/svg" viewBox="0 0 960 1080" height="15" width="14"><defs><style>      .cls-1 {        fill: #fff;      }    </style></defs><g><path class="cls-1" d="M282.66,251.04c-7.95-2.11-15.8-4.55-23.54-7.41,0,0-2.19-.83-2.19-.83l-.55-.21c-.18-.07-.41-.16-.39-.14-1.09-.34-1.96-.02-2.82,1.01-14.27,18.7-22.32,50.85-23.91,74.22-.12,1.92-.06,4.31.56,5.55.05.04.17.13.17.13,10.21,7.51,21.85,12.42,34.28,16.48.95-40.59,12.82-74.87,18.37-88.79Z" /><path class="cls-1" d="M534.02,558.35c9.06.38,15.46-1.12,19.05-4.47,2.47-2.31,3.73-5.62,3.85-10.14.2-7.75-.77-15.9-1.61-21.31-12.1,3.16-24.58,5.8-37.29,7.9,1.94,10.71,6.91,27.63,16.01,28.02Z" /><path class="cls-1" d="M474.95,358.12c4.72-.12,9.7-.25,14.88-.42.69-24.49.76-73.73-5.04-92.18-.58.02-1.16.04-1.74.06-16.75.4-33.51.56-50.27.41-8.61,29.35-6.74,75.25-5.66,92.33,15.94.16,31.89.06,47.82-.2Z" /><path class="cls-1" d="M384.33,264.67c-7.53-.44-15.09-.92-22.67-1.5-3.09,12.64-13.83,60.08-9.22,91.96,5.48.44,10.94.84,16.38,1.18,13.73.87,27.48,1.42,41.24,1.74-1.12-18.11-2.66-61.06,5.19-92.33-10.31-.22-20.61-.56-30.91-1.05Z" /><path class="cls-1" d="M253.25,409c.31.08.69.09,1.1.06-.32-.02-.65-.03-.97-.05-.04,0-.15-.01-.13,0Z" /><path class="cls-1" d="M624.72,527.27c8.71,2.35,21-6.47,22.39-9.17,3.74-7.84-1.85-22.12-6.24-30.76-8.9,5.46-18.54,10.54-28.79,15.2,3.81,15.52,9.58,23.9,12.63,24.72Z" /><path class="cls-1" d="M576.53,547.57c7.14.58,15.59-2.29,21-7.14,2.16-1.93,4.75-5,4.87-8.69.19-6.11-.51-16.41-1.18-24.5-11.68,4.78-24.02,9.04-36.86,12.71,2.77,17.65,8.5,27.32,12.17,27.61Z" /><path class="cls-1" d="M437.88,388.98c-.09-2.97-.19-7.21-.37-10.78-23.32-.01-46.63-.54-69.94-1.96-9.12-.64-18.2-1.34-27.25-2.22-.11.35-.23.69-.39,1.03-3.54,7.63-5.02,16.25-4.71,24.74l.17,3.19.48,3.15c.26,2.38,1.03,4.66,1.57,6.99,1.34,3.74,2.78,7.5,4.91,10.86,1.19,2.18,3.03,4.58,4.55,6.54.68.72,2.54,2.77,3.24,3.53.8.74,2.8,2.49,3.56,3.21.8.58,3.02,2.24,3.85,2.86.92.57,3.22,1.93,4.11,2.47,0,0,.02.01.03.02-.6-2.79-1.08-5.65-1.26-7.68-1.74-19.45,10.26-35.69,26.62-37.89,21.26-2.86,32.33,7.25,35.02,26.59.47,3.38.57,6.69.46,9.69,10.3-11.18,15.85-27.28,15.33-44.32Z" /><path class="cls-1" d="M299.44,254.98c-4.51,10.96-18.08,47.42-18.2,89.56,17.54,4.28,35.69,7.05,53.89,8.98-3.52-33.08,5.62-76.07,9.39-91.86-15.12-1.52-30.21-3.61-45.08-6.69Z" /><path class="cls-1" d="M651.99,226.02c-7.21-9.95-15.21-19.44-24.76-27.14-.8-.58-2.34-1.98-3.22-2.39-2.11-1.07-3.65-1.23-6.19-.86-41.8,5.79-84.13,8.87-126.33,7.5-3.27-.13-3.71-4.98-.28-5.51,23.77-3.1,47.39-6.08,70.96-10.05,13.36-2.2,26.7-4.7,40.02-7.29-9.7-19.72-25.98-36.73-46.54-48.41-25.27-14.35-56.2-20.52-89.44-17.85-36.34,2.92-66.6,11.13-89.94,24.41-20.69,11.77-35.47,27.35-44.07,46.36,7.12,1.11,15.33,2.4,15.33,2.4,24.16,3.7,48.46,6.44,72.82,8.58,8.15.73,16.31,1.32,24.49,2.01,4.05.41,4.08,6.39-.14,6.67-42.23,1.92-84.62.07-126.62-4.57-1.69-.23-3.52-.07-5.07.6-1.01.41-1.91,1.02-2.7,1.75-1.35,1.2-2.74,2.3-4.04,3.63-8.42,8.24-15.47,17.79-21.96,27.65,96.68,27.56,268.42,25.77,367.68-7.49Z" /><path class="cls-1" d="M684.17,372.31c.4.42.74.68.76.58.01-.05-.12-.21-.39-.38-.11-.07-.24-.13-.37-.19Z" /><path class="cls-1" d="M706.75,309.13c.08-.07.02-.03.02-.03,0,0-.01.02-.02.03Z" /><path class="cls-1" d="M690.72,391.45c.07.02.14.03.25.06.13.03.25.05.38.06l-.18-.04c-.16-.03-.3-.06-.45-.08Z" /><path class="cls-1" d="M658.7,334.05c18.7-6.39,35.25-14.51,47.98-24.86.04-.03.05-.04.07-.06,0,0,0,0,0,0,1.2-3.63.51-8-.26-12.06-3.58-16.21-11.13-32.12-19.84-46.29-2.99-4.73-6.26-9.37-9.73-13.03-.92-1.13-2.76-2.65-3.94-3.37-10.8,4.2-22.19,7.86-33.98,11.06,3.75,10.98,18.05,54.72,19.69,88.61Z" /><path class="cls-1" d="M622.44,249.57c-15.39,3.52-31.32,6.33-47.42,8.57,8.34,30.56,9.56,72.46,9.63,92.32,19.61-2.67,39.09-6.3,57.2-11.25-.26-33-16.86-82.29-19.4-89.64Z" /><path class="cls-1" d="M567.63,352.55c-.02-18.59-1.04-62.87-9.67-92.27-18.7,2.13-37.47,3.56-55.76,4.49,5.85,24.7,5.22,72.73,4.67,92.28,18.89-.84,39.67-2.18,60.76-4.5Z" /><path class="cls-1" d="M586.02,441.4c13.92-6.72,24.04-20.14,26.59-37.35.76-5.39.78-10.93.01-16.31-1.27-7.4-4.25-15.22-7.44-21.9-29.91,5.54-60.28,8.48-90.7,10.19-.07.39-.15.79-.27,1.21-1.93,6.37-2.38,14.1-2.4,20.85.03.84.2,2.22.26,3.07,1.26,11.64,6.93,22.04,15.14,29.88,0-1.88,0-3.36.03-3.81,1.12-19.5,12.86-37.97,34.2-35.78,16.42,1.68,28.99,15.92,27.87,35.42-.16,2.84-1,8.59-3.3,14.56Z" /><path class="cls-1" d="M417.61,836.3c-3.6.91-10.51,8.31-13.78,24.27-.03.26-.07.5-.09.72,6.92,2.26,13.96,4.18,21.08,5.71,5.37,1.14,10.79,2.09,16.25,2.86,1.55-15.98-.08-27.94-2.67-30.15-1.89-1.61-12.57-5.49-20.79-3.41Z" /><path class="cls-1" d="M558.03,830.71c-7.68-.98-14.22.37-17.95,3.7-1.99,1.77-2.97,3.96-2.94,6.51.09,6.41.47,16.75.71,23.03,0,.1.02.21.02.31,11.09-2.88,21.96-6.54,32.49-10.96-1.03-8.27-4.34-21.57-12.34-22.59Z" /><path class="cls-1" d="M599.85,821.43c-8.43-.9-18.51,4.44-20.16,6.3-1.69,1.9-2.86,7.21.16,21.34,10.86-5.14,21.29-11.13,31.15-17.96-2.89-4.71-6.8-9.22-11.15-9.68Z" /><path class="cls-1" d="M629.95,797.14c-10.3,5.43-10.09,10.89-9.86,16.67.04,1.1.09,2.24.05,3.35-.05,1.71.25,4.13.72,6.7,9.09-7.11,17.59-14.99,25.38-23.63-.19-.17-.38-.33-.58-.49-5.44-4.46-10.58-5.3-15.71-2.6Z" /><path class="cls-1" d="M516.76,835.82c-9.31-.99-15.78-.02-19.23,2.88-2.2,1.86-3.4,4.7-3.65,8.67-.69,10.98-.43,19.41-.15,24.18,11.95-.89,23.84-2.64,35.54-5.23-.02-.51-.04-1.06-.07-1.65-.81-11.32-4.27-27.98-12.45-28.85Z" /><path class="cls-1" d="M478.54,840.78c-4.13-2.78-10.78-3.2-18.27-1.15-8.23,2.25-9.52,21.01-8.87,31.45,11.13,1.08,22.36,1.4,33.57.96-.67-6.65-1.88-18.56-2.68-25.25-.3-2.51-1.56-4.53-3.75-6.01Z" /><path class="cls-1" d="M210.54,464.95s.05-.06.08-.09c-.18.17-.12.16-.08.09Z" /><path class="cls-1" d="M476.65,562.01c13.39,3.3,28.97,2.78,30.79-3.81,1.72-6.25,1.73-18.26,1.43-26.46-13.21,1.88-26.62,3.17-40.09,3.81.46,12.4,2.91,25.24,7.86,26.46Z" /><path class="cls-1" d="M773.32,490.06c-1.29-3.37,1.38-6.21,4.27-6.38,14.48-8.94,32.08-14.95,41.53-29.92,6.91-11.6,8.47-25.5,7.63-38.82-1.11-17.49-7.11-35.53-20.09-47.43-20.32-18.54-45.94-13.25-58.33,10.9-4,7.5-7.28,15.67-7.51,23.9-.09,4.28.7,8.27,2.49,11.99.4.84,1.99,3.62,2.47,4.47,2.57,4.53,5.09,9.02,7.42,13.79,2.35,5.23,5.89,11.32,3.07,17.52-5.46,10.49-20.55,8.22-27.05.35-3.05-4.01-5.12-8.59-7.48-12.88-4.58-8.85-9.38-17.53-14.91-25.73-2.71-4.04-5.51-7.99-8.34-11.62-2.53-3.16-4.98-6.46-8.04-8.79-1.02-.15-1.73-.08-3.4.03-12.38,1.47-18.56-6.81-22.07-17.42-2.43-7.3-4.04-14.44-5.21-21.75-1.85.62-3.7,1.22-5.56,1.8-11.12,3.35-22.34,6.2-33.64,8.66,1.36,3.84,2.43,7.67,3.48,11.64,1.29,5.11,2.38,10.58,2.37,15.96.74,48.03-42.07,79.68-87.38,61.9-21.22-8.33-37.72-28.16-40.81-51.03-.22-1.35-.39-3-.43-4.29-.19-6.93-.3-13.34.76-20.11-13.72.59-27.44.98-41.12,1.29-1.55.02-3.09.02-4.64.04-.06,3.66-.19,7.8-.25,10.91-.54,25.99-13.18,53.37-37.32,65.39-41.31,19.89-90.37-7.56-93.86-53.71-.95-9.58.22-19.26,3.13-28.44-13.26-1.64-26.45-3.77-39.57-6.73-1.77,6.67-3.52,13.28-5.53,19.93-2.4,7.56-4.99,16.28-12.8,20.93-3.07,1.82-6.65,2.58-10.08,2.68,0,0,0,0,0,0-1.5,2.52-2.61,5.38-3.76,8.41-2.47,6.92-5.02,14.11-8.02,20.95-2.03,4.77-4.17,9.57-6.33,14.51-2.82,6.13-5.15,12.4-9.92,17.78-1.19,1.19-2.48,2.66-3.55,3.96-1.06,1.18-1.38,1.98-3.14,3.43-1.37,1.1-3.12,1.9-4.97,2.13-3.43.48-6.24-1.12-8.93-2.54-8.42-3.73-12.39-14.25-8.6-22.64,6.21-15.8,15.15-38.19,9.91-54.52-4.83-15.7-21.53-22.12-36.83-19.05-21.9,4.22-38.09,23.71-46.04,43.83-7.89,19.46-13.62,46.43,5.08,60.96,14.16,10.4,35.23,11.44,52.37,12.46,5.22.06,8.19,3.64,8.65,7.52.64,1.41.81,3.11.22,4.99-9.62,28.09-23.81,54.25-34.91,81.38-13.97,32.97-22.13,68.36-19.49,104.23,9.47,152.21,124.6,239.43,268.66,257.31,98.94,11.62,205.33,1.15,291.9-51.38,73.5-44.03,128.46-121.51,135.67-207.96,2.72-35.46-3.1-71.24-15.03-104.64-12.96-34.21-33.33-65.58-46.13-100.16ZM185.25,448.07c-1.5,0-2.66-.91-3.7-1.82-4.81-4.89-8.08-9.63-11.62-13.31-7.56,8.56-11.64,20.18-12.28,31.56-.06,2.54-3.67,2.86-4.12.35-2.73-12.92-1.19-26.71,4.43-38.7-2.94-.5-6.41-.49-10.68.18-2.06.37-4.05-1.06-4.31-3.14-.17-1.31.38-2.55,1.33-3.33,3.79-3.08,8.63-5.35,14.19-5.96,13.76-1.56,27.11,9.32,30.52,22.15,1.05,4.11,2.63,11.87-3.75,12.02ZM441.98,453.82c13.35-15.06,39.67-28.95,57.09-12.25,15.91,15.35,16.22,38.88-1.34,52.99-4.42,3.57-9.4,6.06-14.51,7.61-2.17.66-4.47-.57-5.12-2.74-.53-1.74.15-3.55,1.56-4.55,14.83-9.79,23.09-25.69,9.89-40.5-1.8-2.08-3.92-3.87-6.62-4.64-11.43-2.67-24.97,4.98-35.73,10.58-4.14,2.24-8.28-2.98-5.22-6.5ZM547.44,902.7c-30.09,24.49-82.58,28.61-116.81,10.79-1.98-1.07-2.72-3.55-1.64-5.53.87-1.61,2.68-2.4,4.39-2.06,9.34,1.69,18.59,2.74,27.91,3.11,18.55.74,37.33-.78,55.47-4.71,9.09-1.99,18.01-4.74,27.09-7.97,3.89-1.37,6.78,3.74,3.61,6.37ZM720.13,674.73c-4.35,43.83-20.07,86.78-46.59,122.11-56.44,77.21-161.05,108.19-252.76,88.69-75.06-15.87-142.16-71.5-165.32-145.55-24.01-78.78-7.49-167.14,43.35-231.88.44-.55.88-1.09,1.31-1.63-.87.42-1.76.81-2.66,1.15-6.6,2.49-13.72,3.23-20.23,1.55-1.39-.36-2.23-1.78-1.87-3.17.21-.82.79-1.44,1.52-1.76,9.96-4.67,18.37-10.29,24.07-19.02,3.75-5.95,5.87-12.84,6.11-19.92.11-2.62-.06-5.44-.29-8.44-.32-3.15,3.71-5.05,5.94-2.86,5.11,4.78,8.07,12.05,8.21,19.44.2,3.8-.36,7.56-1.52,11.13,29.01,25.2,83.64,38.42,147.93,35.49,66.19-3.02,130.9-22.13,173.51-51.18-1.14-3.05-1.82-6.34-1.89-9.83-.18-3.86.56-7.75,1.91-11.3,1.39-3.55,3.42-6.78,6-9.37,2.35-2.37,6.18-2.38,8.54-.03,1.99,1.97,2.29,4.96,1.01,7.28-5.32,10.17-1.84,21.95,7.67,27.97,6.12,4.05,13.18,5.48,20.86,5.02,4.66-.53,6.64,5.75,2.56,7.98-8.76,4.74-18.92,4.66-27.68,1.14.34.48.68.96,1.02,1.45,17.06,23.01,34.9,46.22,45.59,73.22,14.74,35.3,17.75,74.73,13.71,112.34ZM763.42,415.84c.98-15.68,17.73-28.82,33.33-25.34,5.29,1.19,9.7,3.91,12.98,7.3,1.42,1.46,1.38,3.79-.08,5.21-.92.9-2.2,1.21-3.37.95-3.6-.84-7.03-1.37-9.99-1.24,3.44,10.23,3.82,21.51,1.41,31.94-.39,1.81-1,3.56-1.49,5.31-.31,1.1-1.45,1.74-2.55,1.43-1.01-.28-1.59-1.24-1.51-2.23,0-1.72.11-3.4.02-5.08-.41-9.12-3.16-18.48-8.43-25.96-3.46,2.9-6.58,6.46-9.99,9.34-1.05.97-2.24,1.86-3.45,2.54-3.01,1.99-7.26-.62-6.91-4.17Z" /><path class="cls-1" d="M397.52,555.4c2.31-1.82,7.27-5.75,9.15-21.91-14.44-1.78-27.97-4.49-40.41-8.09-3.86,8.78-7.13,20.1-3.03,24.64,6.13,6.78,25.76,12.09,34.28,5.36Z" /><path class="cls-1" d="M422.44,560.76c12.44,4.75,24.41,5.46,30.48,1.83,2.87-1.72,4.51-4.44,5-8.31.94-7.33,1.49-13.58,1.81-18.4-3.49.09-6.96.15-10.38.15-11.67,0-22.94-.53-33.75-1.55-1.25,8.64-1.88,22.97,6.83,26.29Z" /><path class="cls-1" d="M345.28,813.85c-3.08-.77-5.67-.39-7.93,1.14-2.16,1.47-3.87,3.84-5.19,6.43,7.02,5.93,14.42,11.4,22.14,16.37.14-.78.29-1.56.43-2.31,2.46-13.1,2.96-18.54-9.45-21.62Z" /><path class="cls-1" d="M327.32,543.76c8.31,1.5,16.29-.77,19.86-5.66,4.32-5.92,7.41-11.46,9.51-15.72-14.91-5.11-28.01-11.59-38.95-19.36-1,1.21-2,2.42-2.97,3.65-3.54,7.01-6.53,16-4.32,23.92,2.19,7.86,10.16,11.96,16.88,13.17Z" /><path class="cls-1" d="M743.67,439.72c-.07,0-.14.02-.21.02.17.02.3,0,.21-.02Z" /><path class="cls-1" d="M377.21,826.04c-.11,0-.22,0-.33,0-7.52.04-11.49,9.57-13.48,17.28,10.22,5.88,20.93,10.92,31.98,15.05,1.04-8.19,2.15-19.79,1.54-23.47-.94-5.63-8.11-8.85-19.71-8.85Z" /><g><path d="M543.83,896.33c-9.08,3.24-18,5.99-27.09,7.97-18.14,3.93-36.92,5.44-55.47,4.71-9.32-.37-18.56-1.42-27.91-3.11-1.71-.34-3.51.45-4.39,2.06-1.07,1.98-.34,4.46,1.64,5.53,34.23,17.82,86.72,13.7,116.81-10.79,3.17-2.63.28-7.73-3.61-6.37Z" /><path d="M848.37,616.17c-3.93-18.95-11.61-36.97-20.76-53.92-8.79-16.42-19.17-32.02-28.83-47.86-4.01-6.44-7.92-12.92-11.77-19.44,8.26-.3,16.35-3.13,23.49-7.4,19.21-11.69,31.27-35.17,33.65-57.07,2.3-22.15-.47-44.79-12.2-64.31-12.26-20.84-36.58-35.42-61.24-30.81-18.43,3.19-33.4,16.98-41.21,33.51-1.53,3.15-2.94,6.4-4.16,9.72-2.43-5.77-4.78-11.57-7.01-17.38-3.78-9.94-7.44-20.2-10-30.4-.12-.51-.3-.99-.5-1.45,1.7-1.18,3.38-2.4,5.02-3.67,1.84-1.45,3.68-2.86,5.41-4.49,3.11-2.78,4.91-7.64,5.37-11.34,2.77-23.22-19.58-66.03-35.68-82.83-4.53-4.76-11.73-10.06-18.98-7.28-7.55-13.77-17.73-26.15-30.17-35.76-5.19-4.52-12.39-7.08-19.3-6.82-10.88-24.64-30.43-45.88-55.46-60.09-28.24-16.04-62.55-22.96-99.19-20.01-38.84,3.12-71.47,12.06-96.99,26.58-25.59,14.56-43.45,34.36-53.16,58.87-2.55.08-5.09.5-7.53,1.31-5.1,1.57-9.34,5.14-13.25,8.61-11.24,10.19-19.96,22.12-26.94,35.24-1.14-.44-2.27-.88-3.39-1.34-8.45-3.95-18.73-1.35-24.4,5.79-15.39,19.78-22.89,46.09-27.12,70.36-1.39,11.28-4.61,24.51,4.15,33.94.69.76,1.55,1.43,2.35,2.06,4.12,3.12,8.51,5.89,13.04,8.39l-.35,3.46s-.6,3.87-.6,3.87c-1.78,9.4-4.14,18.74-6.8,28.01-7.9-12.76-21.83-21.28-37.01-22.9-37.74-4.05-67.19,25.84-78.49,59.19-5.49,16.03-9.17,33-6.09,50.06,5.8,33.04,40.82,48.83,72.04,48.09-5.02,9.27-10.06,18.58-15.04,28.04-21.79,40-37.65,84.05-38.29,130.19-.87,38.12,4.86,76.47,17.72,112.41,31.53,89.8,107.99,151.83,197.57,178.94,89.23,27.53,203.93,25.85,292.31-4.32,109.86-36.53,200.31-126.48,219.88-242.85,5.73-33.97,6.55-69.03-.1-102.93ZM706.75,309.13s0-.02.02-.03c0,0,.07-.04-.02.03ZM684.54,372.51c.27.17.4.34.39.38-.02.1-.36-.15-.76-.58.13.06.26.12.37.19ZM691.16,391.53l.18.04c-.13,0-.26-.03-.38-.06-.11-.03-.18-.05-.25-.06.14.02.29.05.45.08ZM672.99,234.38c1.17.72,3.02,2.24,3.94,3.37,3.46,3.66,6.74,8.29,9.73,13.03,8.71,14.17,16.26,30.08,19.84,46.29.77,4.06,1.46,8.43.26,12.06,0,0,0,0,0,0-.02.02-.04.03-.07.06-12.73,10.35-29.28,18.47-47.98,24.86-1.64-33.89-15.93-77.63-19.69-88.61,11.8-3.19,23.18-6.86,33.98-11.06ZM561.46,391.42c-21.34-2.19-33.08,16.28-34.2,35.78-.03.46-.03,1.94-.03,3.81-8.22-7.84-13.89-18.23-15.14-29.88-.07-.85-.23-2.23-.26-3.07.02-6.75.47-14.48,2.4-20.85.12-.41.2-.81.27-1.21,30.42-1.7,60.79-4.65,90.7-10.19,3.19,6.69,6.17,14.5,7.44,21.9.77,5.38.75,10.92-.01,16.31-2.55,17.21-12.68,30.64-26.59,37.35,2.3-5.97,3.14-11.73,3.3-14.56,1.12-19.5-11.45-33.73-27.87-35.42ZM502.2,264.77c18.3-.93,37.06-2.36,55.76-4.49,8.63,29.4,9.65,73.68,9.67,92.27-21.09,2.32-41.87,3.66-60.76,4.5.55-19.54,1.18-67.58-4.67-92.28ZM584.65,350.46c-.06-19.87-1.28-61.77-9.63-92.32,16.1-2.23,32.03-5.05,47.42-8.57,2.54,7.35,19.14,56.63,19.4,89.64-18.1,4.95-37.59,8.58-57.2,11.25ZM306.28,205.86c1.29-1.34,2.69-2.43,4.04-3.63.8-.73,1.69-1.34,2.7-1.75,1.55-.67,3.38-.83,5.07-.6,42,4.64,84.39,6.49,126.62,4.57,4.22-.28,4.19-6.26.14-6.67-8.17-.69-16.34-1.28-24.49-2.01-24.36-2.14-48.66-4.88-72.82-8.58,0,0-8.21-1.29-15.33-2.4,8.6-19.01,23.38-34.59,44.07-46.36,23.34-13.28,53.6-21.49,89.94-24.41,33.24-2.67,64.17,3.5,89.44,17.85,20.56,11.67,36.84,28.69,46.54,48.41-13.32,2.59-26.65,5.08-40.02,7.29-23.57,3.97-47.19,6.96-70.96,10.05-3.44.53-2.99,5.38.28,5.51,42.19,1.37,84.53-1.7,126.33-7.5,2.54-.36,4.08-.21,6.19.86.88.42,2.42,1.81,3.22,2.39,9.55,7.7,17.55,17.19,24.76,27.14-99.26,33.26-271,35.06-367.68,7.49,6.49-9.86,13.54-19.41,21.96-27.65ZM422.09,423.61c-2.69-19.35-13.76-29.45-35.02-26.59-16.36,2.2-28.36,18.44-26.62,37.89.18,2.04.66,4.89,1.26,7.68,0,0-.02-.01-.03-.02-.89-.54-3.19-1.9-4.11-2.47-.83-.61-3.05-2.27-3.85-2.86-.76-.72-2.76-2.47-3.56-3.21-.7-.76-2.57-2.81-3.24-3.53-1.52-1.96-3.36-4.36-4.55-6.54-2.13-3.37-3.57-7.12-4.91-10.86-.54-2.33-1.31-4.6-1.57-6.99l-.48-3.15-.17-3.19c-.31-8.49,1.18-17.11,4.71-24.74.16-.34.28-.68.39-1.03,9.05.88,18.13,1.58,27.25,2.22,23.3,1.42,46.62,1.95,69.94,1.96.18,3.57.28,7.81.37,10.78.53,17.05-5.03,33.15-15.33,44.32.11-3.01.01-6.31-.46-9.69ZM335.13,353.52c-18.2-1.93-36.35-4.7-53.89-8.98.12-42.14,13.69-78.61,18.2-89.56,14.86,3.07,29.95,5.17,45.08,6.69-3.77,15.79-12.91,58.78-9.39,91.86ZM410.05,358.05c-13.76-.32-27.51-.87-41.24-1.74-5.44-.35-10.9-.74-16.38-1.18-4.61-31.88,6.13-79.32,9.22-91.96,7.58.58,15.14,1.07,22.67,1.5,10.3.49,20.61.82,30.91,1.05-7.86,31.27-6.32,74.22-5.19,92.33ZM427.13,358.32c-1.08-17.08-2.95-62.97,5.66-92.33,16.77.14,33.53-.01,50.27-.41.58-.02,1.16-.04,1.74-.06,5.8,18.45,5.74,67.69,5.04,92.18-5.18.17-10.16.3-14.88.42-15.94.26-31.88.36-47.82.2ZM230.01,323.35s-.13-.09-.17-.13c-.62-1.23-.68-3.63-.56-5.55,1.59-23.37,9.63-55.52,23.91-74.22.85-1.03,1.73-1.35,2.82-1.01-.02-.02.21.07.39.14l.55.21s2.19.83,2.19.83c7.74,2.86,15.6,5.3,23.54,7.41-5.55,13.92-17.42,48.19-18.37,88.79-12.44-4.06-24.07-8.97-34.28-16.48ZM253.38,409c.32.03.64.04.97.05-.4.03-.79.02-1.1-.06-.02,0,.09,0,.13,0ZM834.49,694.86c-7.2,86.45-62.16,163.94-135.67,207.96-86.56,52.53-192.96,63-291.9,51.38-144.06-17.87-259.19-105.09-268.66-257.31-2.64-35.87,5.53-71.26,19.49-104.23,11.1-27.13,25.29-53.29,34.91-81.38.59-1.88.42-3.58-.22-4.99-.46-3.87-3.42-7.46-8.65-7.52-17.14-1.02-38.22-2.06-52.37-12.46-18.7-14.54-12.97-41.5-5.08-60.96,7.95-20.12,24.14-39.61,46.04-43.83,15.3-3.07,32,3.35,36.83,19.05,5.23,16.33-3.71,38.71-9.91,54.52-3.8,8.39.18,18.91,8.6,22.64,2.7,1.42,5.5,3.02,8.93,2.54,1.85-.22,3.59-1.03,4.97-2.13,1.76-1.46,2.09-2.26,3.14-3.43,1.06-1.29,2.36-2.77,3.55-3.96,4.78-5.38,7.1-11.65,9.92-17.78,2.16-4.95,4.31-9.75,6.33-14.51,3-6.84,5.55-14.04,8.02-20.95,1.15-3.03,2.26-5.89,3.76-8.41,0,0,0,0,0,0,3.43-.1,7.01-.86,10.08-2.68,7.81-4.65,10.4-13.37,12.8-20.93,2.01-6.65,3.76-13.26,5.53-19.93,13.12,2.95,26.31,5.09,39.57,6.73-2.91,9.18-4.07,18.87-3.13,28.44,3.48,46.16,52.55,73.61,93.86,53.71,24.14-12.02,36.77-39.4,37.32-65.39.06-3.11.19-7.25.25-10.91,1.55-.01,3.09-.02,4.64-.04,13.68-.31,27.4-.7,41.12-1.29-1.06,6.77-.96,13.18-.76,20.11.04,1.29.2,2.94.43,4.29,3.1,22.87,19.59,42.7,40.81,51.03,45.31,17.77,88.12-13.88,87.38-61.9.02-5.38-1.07-10.85-2.37-15.96-1.05-3.97-2.12-7.81-3.48-11.64,11.3-2.46,22.52-5.31,33.64-8.66,1.86-.58,3.71-1.19,5.56-1.8,1.17,7.31,2.78,14.45,5.21,21.75,3.51,10.61,9.69,18.89,22.07,17.42,1.66-.11,2.37-.18,3.4-.03,3.06,2.33,5.51,5.63,8.04,8.79,2.83,3.64,5.62,7.58,8.34,11.62,5.53,8.2,10.34,16.88,14.91,25.73,2.36,4.29,4.44,8.87,7.48,12.88,6.5,7.86,21.59,10.13,27.05-.35,2.82-6.21-.72-12.29-3.07-17.52-2.33-4.77-4.85-9.26-7.42-13.79-.48-.85-2.07-3.63-2.47-4.47-1.79-3.72-2.58-7.71-2.49-11.99.23-8.23,3.51-16.39,7.51-23.9,12.39-24.15,38-29.43,58.33-10.9,12.98,11.9,18.98,29.94,20.09,47.43.84,13.32-.72,27.22-7.63,38.82-9.44,14.97-27.05,20.98-41.53,29.92-2.89.16-5.56,3.01-4.27,6.38,12.8,34.58,33.17,65.95,46.13,100.16,11.93,33.4,17.75,69.18,15.03,104.64ZM210.62,464.86s-.05.06-.08.09c-.05.07-.1.08.08-.09ZM743.46,439.74c.07,0,.14-.03.21-.02.09.02-.04.05-.21.02Z" /><path d="M447.21,460.33c10.77-5.61,24.3-13.26,35.73-10.58,2.7.77,4.82,2.56,6.62,4.64,13.2,14.81,4.93,30.7-9.89,40.5-1.4.99-2.08,2.81-1.56,4.55.66,2.17,2.95,3.4,5.12,2.74,5.11-1.55,10.09-4.04,14.51-7.61,17.55-14.11,17.24-37.64,1.34-52.99-17.42-16.7-43.74-2.81-57.09,12.25-3.06,3.52,1.08,8.74,5.22,6.5Z" /><path d="M158.49,413.9c-5.56.61-10.4,2.88-14.19,5.96-.95.78-1.5,2.02-1.33,3.33.26,2.09,2.25,3.51,4.31,3.14,4.27-.67,7.74-.68,10.68-.18-5.62,12-7.15,25.78-4.43,38.7.45,2.5,4.07,2.18,4.12-.35.64-11.38,4.72-23,12.28-31.56,3.54,3.68,6.82,8.41,11.62,13.31,1.04.91,2.2,1.83,3.7,1.82,6.38-.15,4.8-7.91,3.75-12.02-3.4-12.82-16.76-23.7-30.52-22.15Z" /><path d="M783.76,408.12c5.26,7.47,8.02,16.84,8.43,25.96.1,1.68-.02,3.36-.02,5.08-.08.99.5,1.95,1.51,2.23,1.1.31,2.24-.33,2.55-1.43.49-1.75,1.1-3.5,1.49-5.31,2.41-10.43,2.03-21.71-1.41-31.94,2.96-.12,6.39.4,9.99,1.24,1.17.26,2.44-.06,3.37-.95,1.46-1.42,1.49-3.75.08-5.21-3.29-3.39-7.7-6.11-12.98-7.3-15.6-3.47-32.35,9.67-33.33,25.34-.35,3.54,3.9,6.15,6.91,4.17,1.21-.68,2.39-1.57,3.45-2.54,3.4-2.88,6.52-6.44,9.99-9.34Z" /><path d="M660.83,489.18c-.34-.48-.68-.96-1.02-1.45,8.76,3.52,18.92,3.6,27.68-1.14,4.07-2.23,2.1-8.51-2.56-7.98-7.67.46-14.73-.96-20.86-5.02-9.51-6.02-12.99-17.8-7.67-27.97,1.28-2.33.99-5.31-1.01-7.28-2.37-2.35-6.19-2.34-8.54.03-2.58,2.59-4.6,5.83-6,9.37-1.34,3.56-2.08,7.44-1.91,11.3.07,3.49.75,6.78,1.89,9.83-42.61,29.05-107.32,48.16-173.51,51.18-64.3,2.94-118.92-10.28-147.93-35.49,1.16-3.57,1.72-7.33,1.52-11.13-.14-7.39-3.09-14.67-8.21-19.44-2.23-2.19-6.26-.3-5.94,2.86.23,3.01.41,5.82.29,8.44-.23,7.08-2.36,13.97-6.11,19.92-5.7,8.73-14.11,14.35-24.07,19.02-.73.32-1.3.93-1.52,1.76-.36,1.39.48,2.82,1.87,3.17,6.51,1.68,13.64.94,20.23-1.55.9-.34,1.79-.73,2.66-1.15-.44.54-.88,1.08-1.31,1.63-50.83,64.75-67.35,153.1-43.35,231.88,23.16,74.05,90.26,129.68,165.32,145.55,91.71,19.5,196.32-11.48,252.76-88.69,26.51-35.33,42.24-78.28,46.59-122.11,4.04-37.6,1.03-77.04-13.71-112.34-10.69-27-28.53-50.21-45.59-73.22ZM640.88,487.35c4.39,8.64,9.98,22.92,6.24,30.76-1.4,2.7-13.68,11.52-22.39,9.17-3.05-.82-8.82-9.2-12.63-24.72,10.25-4.66,19.89-9.74,28.79-15.2ZM601.21,507.25c.68,8.09,1.38,18.39,1.18,24.5-.12,3.69-2.71,6.77-4.87,8.69-5.42,4.84-13.86,7.71-21,7.14-3.67-.29-9.4-9.96-12.17-27.61,12.83-3.68,25.18-7.93,36.86-12.71ZM555.31,522.44c.84,5.41,1.81,13.56,1.61,21.31-.12,4.51-1.38,7.83-3.85,10.14-3.59,3.35-9.99,4.85-19.05,4.47-9.1-.39-14.07-17.31-16.01-28.02,12.71-2.09,25.19-4.74,37.29-7.9ZM508.87,531.74c.3,8.2.29,20.21-1.43,26.46-1.82,6.6-17.4,7.12-30.79,3.81-4.95-1.22-7.41-14.06-7.86-26.46,13.47-.64,26.88-1.93,40.09-3.81ZM415.62,534.47c10.81,1.02,22.07,1.55,33.75,1.55,3.42,0,6.89-.06,10.38-.15-.32,4.82-.87,11.07-1.81,18.4-.5,3.88-2.13,6.59-5,8.31-6.08,3.64-18.04,2.92-30.48-1.83-8.7-3.32-8.07-17.65-6.83-26.29ZM366.26,525.4c12.44,3.6,25.96,6.31,40.41,8.09-1.88,16.16-6.85,20.09-9.15,21.91-8.53,6.72-28.16,1.42-34.28-5.36-4.1-4.54-.83-15.86,3.03-24.64ZM314.76,506.67c.98-1.23,1.97-2.44,2.97-3.65,10.94,7.77,24.04,14.25,38.95,19.36-2.09,4.26-5.19,9.8-9.51,15.72-3.56,4.89-11.54,7.16-19.86,5.66-6.72-1.22-14.69-5.32-16.88-13.17-2.21-7.92.78-16.9,4.32-23.92ZM354.74,835.47c-.14.76-.29,1.53-.43,2.31-7.73-4.97-15.13-10.44-22.14-16.37,1.32-2.59,3.03-4.96,5.19-6.43,2.26-1.53,4.85-1.91,7.93-1.14,12.42,3.08,11.91,8.52,9.45,21.62ZM395.38,858.36c-11.05-4.13-21.76-9.16-31.98-15.05,1.98-7.71,5.96-17.24,13.48-17.28.11,0,.22,0,.33,0,11.59,0,18.77,3.22,19.71,8.85.61,3.68-.5,15.28-1.54,23.47ZM441.07,869.86c-5.45-.77-10.88-1.72-16.25-2.86-7.12-1.54-14.16-3.45-21.08-5.71.03-.22.06-.46.09-.72,3.26-15.96,10.17-23.36,13.78-24.27,8.22-2.08,18.91,1.8,20.79,3.41,2.59,2.21,4.22,14.17,2.67,30.15ZM451.41,871.08c-.65-10.44.65-29.2,8.87-31.45,7.48-2.05,14.14-1.63,18.27,1.15,2.19,1.47,3.45,3.49,3.75,6.01.8,6.7,2.02,18.61,2.68,25.25-11.21.44-22.44.12-33.57-.96ZM493.73,871.55c-.28-4.77-.54-13.2.15-24.18.25-3.97,1.44-6.81,3.65-8.67,3.45-2.91,9.91-3.88,19.23-2.88,8.18.87,11.63,17.53,12.45,28.85.02.59.04,1.15.07,1.65-11.69,2.59-23.59,4.34-35.54,5.23ZM537.88,864.25c0-.1-.02-.21-.02-.31-.24-6.28-.62-16.62-.71-23.03-.04-2.54.95-4.73,2.94-6.51,3.73-3.33,10.27-4.68,17.95-3.7,8,1.02,11.31,14.32,12.34,22.59-10.53,4.42-21.4,8.08-32.49,10.96ZM579.85,849.07c-3.02-14.13-1.85-19.44-.16-21.34,1.66-1.86,11.74-7.21,20.16-6.3,4.35.47,8.26,4.97,11.15,9.68-9.86,6.82-20.29,12.81-31.15,17.96ZM620.86,823.86c-.46-2.57-.77-5-.72-6.7.03-1.11,0-2.25-.05-3.35-.23-5.78-.44-11.24,9.86-16.67,5.13-2.71,10.27-1.86,15.71,2.6.2.16.39.33.58.49-7.79,8.64-16.3,16.52-25.38,23.63Z" /></g></g><g><g><path class="cls-1" d="M660.03,709.22c-5.99,0-10.38-1.59-11.99-2.28-5.99-2.55-10.37-7.33-12.31-13.46-2.2-6.93-1.05-14.83,3.17-21.66,1-1.62,2.38-3.27,4.16-4.96-1.99-.83-3.84-2.03-5.55-3.57-2.5-2.26-4.33-5.09-5.47-8.44-1.4,1.02-2.89,1.95-4.46,2.8-3.43,1.85-7.09,2.93-10.88,3.21-.44.03-.86.05-1.26.06-8.3,7.77-17.67,12.09-27.89,12.84-1,.07-2,.11-2.96.11-4.51,0-8.64-.81-12.28-2.42-4.63-2.04-8.44-5.43-11.32-10.09-.65-1.05-1.24-2.16-1.76-3.33-2.17,1.96-4.65,3.69-7.38,5.17-3.43,1.85-7.09,2.93-10.88,3.21-.43.03-.85.05-1.26.06-8.3,7.78-17.67,12.09-27.89,12.84-1,.07-2,.11-2.97.11-4.51,0-8.64-.81-12.28-2.42-4.63-2.04-8.44-5.43-11.32-10.09-.41-.67-.8-1.36-1.16-2.07-.5.66-1.01,1.3-1.52,1.94-3.69,4.61-7.73,8.38-12,11.22-4.59,3.04-9.3,4.76-14,5.11-.62.05-1.24.07-1.84.07-5.19,0-9.49-1.68-12.78-4.99-.89-.9-1.68-1.86-2.37-2.88-6.35,6.73-13.14,10.4-20.27,10.92-.53.04-1.05.06-1.56.06-4.56,0-8.54-1.49-11.83-4.44-1.78-1.6-3.19-3.62-4.22-6.04-8.11,8.22-16.98,12.76-26.48,13.53-.67.05-1.3.07-1.91.07-1.98,0-3.9-.25-5.69-.73-2.39-.64-4.62-1.7-6.61-3.15-2.21-1.6-3.98-3.8-5.24-6.53-1.15-2.47-1.84-5.31-2.07-8.45-.22-3.05.04-6.54.79-10.38.15-.77.31-1.52.47-2.25-.67,1.8-1.25,3.54-1.73,5.18-2.15,8.08-3.15,15.56-2.98,22.23l.11,4.17-4,1.19c-3.04.9-6.27,1.51-9.58,1.8-1.24.11-2.49.16-3.69.16-2.11,0-4.19-.17-6.19-.5-3.7-.61-6.9-2.06-9.51-4.31-2.1-1.81-3.57-4.1-4.34-6.73-.62.5-1.24.98-1.87,1.46-11.77,8.91-23.86,13.87-35.93,14.75-1.26.09-2.51.14-3.73.14-9.43,0-17.62-2.78-24.35-8.26-7.7-6.27-12.08-15.84-13.01-28.44-.84-11.5,1.6-23.24,7.25-34.91,5.6-11.55,13.49-21.37,23.47-29.2,10.18-7.99,21.07-12.46,32.36-13.29,1.07-.08,2.14-.12,3.17-.12,6.86,0,12.83,1.75,17.76,5.19,5.76,4.02,9.09,9.95,9.9,17.62,1.23-7.24,1.93-13.28,2.09-18.03l.16-4.75,4.73-.48c4.36-.44,8.31-.67,11.74-.67,14.4,0,22.01,4.18,22.62,12.42.09,1.23-.02,2.69-.33,4.61-.27,1.63-.75,3.76-1.47,6.54-.68,2.64-1.37,5.15-2.02,7.47-.34,1.2-.76,2.68-1.25,4.46,4.86-2.7,10-4.26,15.38-4.65.7-.05,1.4-.08,2.07-.08,4.39,0,8.23,1.09,11.4,3.25,2.8,1.91,6.24,5.59,6.73,12.34.32,4.39-.94,10.62-3.85,19.04-1.12,3.23-1.87,5.67-2.38,7.5,2.39-2.76,5.89-7.94,10.48-17.68,2.18-9.69,3.41-17.01,3.65-21.78l.22-4.53,4.49-.59c2.96-.39,5.82-.59,8.51-.59h.51c2.97.03,5.98.39,8.94,1.06,3.59.81,6.6,2.4,8.95,4.73,2.59,2.56,4.04,5.8,4.33,9.63.04.6.06,1.35-.02,2.39.97-4.72,1.62-9.39,1.94-13.94l.31-4.56,4.55-.47c2.35-.24,4.63-.37,6.79-.37.6,0,1.19,0,1.77.03,2.75.09,5.58.42,8.41.98,3.52.7,6.48,2.13,8.79,4.24,2.59,2.37,4.1,5.57,4.37,9.26.15,2.07-.14,5.71-3.33,16.91.41-.77.79-1.52,1.13-2.24,1.6-3.35,4.68-9.81,4.68-9.81.91-4.14,2.04-8.78,3.38-13.81,1.6-6.08,2.8-10.86,3.58-14.18.76-3.25,1.57-7.28,2.42-11.98.81-4.51,1.3-8.56,1.45-12.03l.22-5.2h5.46c4.95,0,9.25.23,12.77.69,3.75.5,6.61,1.09,8.74,1.82,2.62.9,4.76,2.21,6.36,3.91,1.61,1.72,2.62,3.39,3.1,5.11.34,1.21.56,2.65.69,4.4.16,2.19-.18,6.07-3.08,17,2.79-1.1,5.7-1.76,8.72-1.98.52-.04,1.02-.06,1.53-.06,4.98,0,9.43,1.79,13.23,5.32,4.02,3.74,6.34,9.12,6.91,16.01.02-.05.26-.58.26-.58.91-4.14,2.04-8.79,3.38-13.82,1.59-6.06,2.8-10.83,3.58-14.18.76-3.25,1.57-7.28,2.42-11.98.81-4.51,1.3-8.55,1.45-12.03l.22-5.2h5.49c4.94,0,9.23.23,12.74.69,3.75.5,6.61,1.09,8.74,1.82,2.62.9,4.76,2.21,6.35,3.91,1.61,1.72,2.62,3.39,3.1,5.11.34,1.22.56,2.66.69,4.4.16,2.19-.17,6.07-3.08,16.99,2.79-1.1,5.7-1.76,8.71-1.98.51-.04,1.02-.06,1.53-.06,4.98,0,9.43,1.79,13.23,5.32,4.09,3.8,6.42,9.31,6.94,16.37.02.27.04.54.05.81.25-.53.5-1.08.76-1.63l.24-.52c1.62-8.03,2.54-13.85,2.74-17.29l.26-4.47,4.44-.6c3.47-.47,6.65-.71,9.46-.71,16.96,0,20.15,8.9,20.54,14.2.1,1.41.02,3.71-1.08,8.99,1.74-6.81,2.94-13.6,3.56-20.2l.4-4.29,4.27-.59c3.32-.45,6.35-.69,9-.69,4.88,0,8.7.76,11.66,2.31,5.15,2.7,8.09,7.18,8.52,12.94.07.98.19,2.64-1.34,11.63,1.23-2.05,2.32-4.11,3.29-6.2l1.6-3.57,2.31-.74c1.17-.37,2.41-.56,3.69-.56,1.39,0,2.84.22,4.33.67,3.6,1.08,5.89,3.02,6.8,5.77l.65,1.96-1.79,4.16c-5.21,12.05-14.59,23.97-27.91,35.45-1.14,8.71-6,37.34-21.52,48.57-5.67,4.11-12.35,6.28-19.3,6.28ZM283.88,628.25c-1.46,2.69-2.77,5.63-3.92,8.81-2.46,6.79-3.49,13.19-3.06,19.01.33,4.47,1.43,7.73,3.19,9.42,1.47,1.42,3.26,2.08,5.61,2.08.32,0,.65-.01.98-.04,5.54-.41,11.83-3.45,18.7-9.04,7.09-5.77,12.24-12.02,15.31-18.57.83-3.35,1.64-6.62,2.42-9.81.34-1.43.66-2.84.97-4.22-.65,1.22-1.39,2.42-2.19,3.6-5.02,7.37-11.44,11.4-19.09,11.96-.48.03-.95.05-1.41.05-3.51,0-6.77-.97-9.7-2.89-3.25-2.12-5.75-5.3-7.43-9.43l-.39-.95ZM293.06,616.41c-1.11.93-2.28,2.09-3.48,3.49-.17.2-.35.41-.52.61,1.56-1.32,2.9-2.69,4-4.1Z" /><path d="M575.44,570.38c4.72,0,8.74.22,12.04.65,3.36.45,5.93.97,7.7,1.58,1.77.61,3.15,1.43,4.14,2.48.98,1.05,1.59,2,1.83,2.85.23.85.4,1.96.5,3.34.25,3.36-2.13,13.34-7.14,29.97,5.52-6.11,11.72-9.42,18.6-9.93.38-.03.76-.04,1.13-.04,3.58,0,6.75,1.29,9.53,3.87,3.06,2.85,4.8,7.11,5.22,12.78.29,3.96-.24,8.28-1.58,12.96-1.34,4.68-3.32,9.28-5.93,13.8,4.96-1.66,11.7-10.44,18.68-25.71l.5-1.09c1.75-8.63,2.74-14.86,2.97-18.66,3.24-.44,6.15-.66,8.73-.66,9.63,0,14.66,3.05,15.11,9.16.17,2.32-.86,7.76-3.08,16.31-2.23,8.55-3.24,14.25-3.03,17.08.16,2.22.91,3.33,2.26,3.33.06,0,.13,0,.19,0,1.89-.14,4.04-2.61,6.46-7.41,2.41-4.8,4.6-10.93,6.56-18.38,1.96-7.45,3.28-14.79,3.96-22.02,3.09-.42,5.84-.64,8.26-.64,3.94,0,6.99.56,9.13,1.69,3.46,1.82,5.34,4.66,5.62,8.52.19,2.58-1.6,13.15-5.37,31.73,7.85-7.76,13.74-15.9,17.67-24.41l.63-1.41c.63-.2,1.31-.3,2.02-.3.86,0,1.79.15,2.77.44,1.8.54,2.87,1.29,3.19,2.27l-.97,2.26c-5.1,11.81-14.46,23.42-28.06,34.84,0,0-3.58,35.36-19.56,46.93-5.52,4-11.27,5.24-16.11,5.24-4.22,0-7.75-.95-9.86-1.84-10.37-4.41-13.06-16.87-6.64-27.26,3.56-5.77,14.13-12.37,27.5-18.73l.93-8.44c-6.01,9.66-12.77,14.77-20.29,15.32-.4.03-.8.04-1.19.04-3.54,0-6.65-1.21-9.32-3.62-2.97-2.68-4.63-6.51-4.99-11.5-.09-1.28-.06-2.87.08-4.77-1.33,1.73-2.66,3.26-3.99,4.58-2.07,2.04-4.49,3.81-7.26,5.3-2.76,1.49-5.66,2.35-8.69,2.57-.48.04-.94.05-1.38.05-.58,0-1.11-.03-1.61-.09-7.81,7.92-16.53,12.24-26.16,12.94-.88.06-1.73.1-2.57.1-3.76,0-7.13-.65-10.09-1.96-3.62-1.59-6.58-4.25-8.89-7.97-1.98-3.2-3.26-7.1-3.84-11.68-1.74,2.45-3.49,4.55-5.26,6.29-2.07,2.04-4.49,3.81-7.26,5.3-2.76,1.49-5.66,2.35-8.69,2.57-.48.04-.94.05-1.38.05-.58,0-1.11-.03-1.61-.09-7.81,7.92-16.53,12.24-26.16,12.94-.88.06-1.73.1-2.57.1-3.76,0-7.13-.65-10.09-1.96-3.62-1.59-6.58-4.25-8.89-7.97-1.98-3.19-3.25-7.08-3.84-11.65-2.41,3.91-4.98,7.57-7.71,10.98-3.35,4.19-6.94,7.55-10.76,10.08-3.82,2.53-7.62,3.94-11.39,4.21-.49.04-.97.05-1.44.05-3.71,0-6.68-1.13-8.92-3.38-2.52-2.54-3.93-5.83-4.23-9.87-.01-.17-.02-.3-.03-.39-7.18,10.56-14.73,16.13-22.64,16.71-.39.03-.78.04-1.16.04-3.2,0-5.93-1.02-8.2-3.05-2.54-2.28-4.01-6-4.39-11.16-.07-1.01-.08-2.16-.02-3.45-9.19,12.91-19.31,19.83-30.36,20.73-.5.04-.99.06-1.47.06-1.51,0-2.93-.18-4.27-.54-1.77-.47-3.38-1.24-4.84-2.3-1.46-1.06-2.63-2.53-3.5-4.41-.87-1.88-1.4-4.07-1.58-6.56-.19-2.58.05-5.56.71-8.94.66-3.38,1.46-6.38,2.39-9,.93-2.62,1.76-5.17,2.49-7.64.73-2.47,1.06-4.18.99-5.13-.11-1.45-.8-2.17-2.09-2.17-.09,0-.18,0-.28.01-1.64.12-3.31,1.11-5.04,2.96-1.72,1.86-3.26,4.18-4.61,6.95-1.35,2.78-2.48,5.35-3.39,7.71-.91,2.36-1.67,4.6-2.3,6.72-2.31,8.64-3.37,16.59-3.18,23.84-2.71.8-5.54,1.33-8.51,1.6-1.09.1-2.16.14-3.21.14-1.82,0-3.59-.14-5.3-.43-2.71-.45-4.99-1.47-6.84-3.07-1.85-1.59-2.86-3.68-3.05-6.26-.1-1.37.1-3.38.6-6.01.24-1.26.51-2.56.82-3.88-3.42,3.95-7.23,7.5-11.41,10.67-10.98,8.3-21.99,12.86-33.05,13.67-1.13.08-2.24.12-3.33.12-8.18,0-15.15-2.35-20.92-7.04-6.53-5.31-10.2-13.52-11.01-24.62-.78-10.58,1.46-21.29,6.72-32.14,5.26-10.85,12.57-19.94,21.93-27.29,9.36-7.34,19.16-11.39,29.4-12.14.95-.07,1.87-.1,2.77-.1,5.75,0,10.63,1.4,14.65,4.21,4.65,3.25,7.21,8.14,7.69,14.68.49,6.62-1.3,12.92-5.36,18.88-4.06,5.96-9.06,9.16-14.99,9.6-.34.03-.68.04-1.02.04-2.44,0-4.68-.67-6.72-2-2.32-1.52-4.11-3.83-5.37-6.93,3.78-2.61,6.75-5.47,8.91-8.57,2.15-3.1,3.16-5.59,3.02-7.49-.13-1.84-1.1-2.76-2.89-2.76-.14,0-.28,0-.43.02-3.96.29-8.11,2.95-12.45,7.98-4.35,5.03-7.88,11.32-10.61,18.87-2.73,7.55-3.86,14.64-3.37,21.26.44,5.93,2.05,10.25,4.84,12.94,2.49,2.41,5.62,3.61,9.39,3.61.45,0,.91-.02,1.38-.05,6.71-.49,13.95-3.91,21.74-10.24,7.79-6.34,13.4-13.19,16.83-20.56l.2-.43c.88-3.53,1.73-6.98,2.54-10.33,4.48-19.09,6.88-33.49,7.21-43.2,4.19-.43,7.92-.64,11.19-.64,11.1,0,16.83,2.46,17.19,7.38.06.77-.04,1.88-.27,3.33-.24,1.44-.7,3.47-1.37,6.07-.67,2.6-1.34,5.05-1.99,7.34-.65,2.3-1.59,5.67-2.82,10.13-1.23,4.46-2.29,8.23-3.19,11.32,7.72-9.13,16.31-14.04,25.77-14.73.57-.04,1.13-.06,1.68-.06,3.3,0,6.08.77,8.35,2.31,2.64,1.8,4.1,4.54,4.37,8.24.26,3.61-.92,9.23-3.56,16.86-2.64,7.63-3.88,12.56-3.71,14.8.15,2.03,1.03,3.04,2.64,3.04.1,0,.2,0,.31-.01,5.35-.39,11.75-8.54,19.18-24.45,2.34-10.32,3.65-18.08,3.9-23.29,2.74-.36,5.34-.54,7.8-.54.16,0,.31,0,.47,0,2.6.03,5.19.33,7.79.92,2.59.59,4.71,1.69,6.34,3.3,1.63,1.61,2.54,3.66,2.72,6.16.18,2.41-.82,7.74-2.98,15.98-2.16,8.25-3.16,13.53-2.99,15.85.13,1.81.72,2.72,1.75,2.72.04,0,.09,0,.14,0,1.81-.13,3.86-2.23,6.15-6.29,2.3-4.06,4.38-9.23,6.26-15.51,2.42-8.3,3.9-16.41,4.44-24.32,2.16-.23,4.24-.34,6.23-.34.54,0,1.07,0,1.59.02,2.47.08,4.98.37,7.52.88,2.54.51,4.6,1.48,6.18,2.92,1.58,1.44,2.45,3.32,2.62,5.64.16,2.24-1,7.64-3.48,16.21-2.48,8.57-3.66,13.8-3.52,15.69.12,1.64.69,2.46,1.72,2.46.05,0,.1,0,.15,0,1.63-.12,3.85-2.27,6.66-6.46,2.81-4.18,5.01-7.95,6.61-11.3,1.6-3.35,3.12-6.54,4.57-9.58l.38-.79c.91-4.22,2.06-8.95,3.45-14.19,1.62-6.17,2.83-10.95,3.62-14.34.79-3.39,1.61-7.47,2.47-12.24.86-4.78,1.37-9.03,1.53-12.76.09,0,.18,0,.27,0,4.72,0,8.74.22,12.04.65,3.36.45,5.93.97,7.7,1.58,1.77.61,3.15,1.43,4.14,2.48.98,1.05,1.59,2,1.83,2.85.23.85.4,1.96.5,3.34.25,3.35-2.13,13.35-7.14,29.97,5.52-6.11,11.72-9.42,18.6-9.93.38-.03.76-.04,1.13-.04,3.58,0,6.75,1.29,9.53,3.87,3.06,2.85,4.8,7.11,5.22,12.78.29,3.96-.24,8.28-1.58,12.96-1.34,4.68-3.32,9.28-5.93,13.79,4.96-1.66,10.94-10.13,17.92-25.41l.43-.95c.91-4.22,2.06-8.93,3.45-14.16,1.62-6.17,2.83-10.95,3.62-14.34.79-3.39,1.61-7.47,2.47-12.24.86-4.78,1.37-9.03,1.53-12.76.09,0,.18,0,.27,0M588.47,649.82c.06,0,.12,0,.18,0,1.89-.14,3.87-2.03,5.94-5.69,2.07-3.65,3.7-7.62,4.9-11.9,1.2-4.28,1.71-7.63,1.53-10.04-.08-1.12-.4-1.96-.96-2.52-.5-.51-1.13-.76-1.88-.76-.08,0-.17,0-.25,0-1.81.13-3.72,1.83-5.72,5.09-2.01,3.26-3.62,6.95-4.83,11.06-1.21,4.11-1.72,7.54-1.52,10.29.22,2.98,1.09,4.47,2.61,4.47M512.74,655.37c.06,0,.12,0,.18,0,1.89-.14,3.87-2.04,5.94-5.69,2.07-3.65,3.7-7.62,4.9-11.9,1.2-4.28,1.71-7.63,1.53-10.04-.08-1.12-.4-1.96-.96-2.52-.5-.51-1.13-.76-1.88-.76-.08,0-.17,0-.25,0-1.81.13-3.71,1.83-5.72,5.09-2.01,3.26-3.62,6.95-4.83,11.06-1.21,4.11-1.72,7.54-1.52,10.29.22,2.98,1.09,4.47,2.61,4.47M662.91,685.04c.1,0,.19,0,.29-.01,5.06-.37,7.82-6.96,11.85-24.99-18.03,12.86-16.66,19.55-16.35,21.12.48,2.45,2.28,3.88,4.22,3.88M575.44,559.5h-.29s-10.4.02-10.4.02l-.45,10.39c-.14,3.23-.6,7.03-1.37,11.3-.83,4.61-1.63,8.54-2.36,11.7-.68,2.91-1.69,6.96-3.02,12.04-.66-.78-1.36-1.52-2.11-2.22-4.77-4.43-10.63-6.77-16.93-6.78-.63,0-1.28.02-1.93.07-.32.02-.63.05-.94.08,1.22-5.75,1.26-8.24,1.13-10.07-.15-2.11-.44-3.89-.87-5.44-.73-2.61-2.16-5.01-4.37-7.38-2.22-2.37-5.1-4.16-8.57-5.35-2.49-.85-5.68-1.52-9.79-2.06-3.82-.5-8.22-.75-13.47-.75h-.29s-10.4.02-10.4.02l-.45,10.39c-.14,3.23-.6,7.03-1.37,11.3-.83,4.6-1.63,8.54-2.36,11.7-.71,3.06-1.79,7.35-3.21,12.78-.5-.59-1.05-1.15-1.63-1.68-3.06-2.79-6.89-4.66-11.4-5.56-3.13-.62-6.25-.98-9.3-1.08-.64-.02-1.29-.03-1.94-.03-2.35,0-4.83.13-7.36.4l-9.09.95-.36,5.25c-2.56-1.82-5.52-3.11-8.84-3.87-3.33-.76-6.72-1.16-10.08-1.19-.2,0-.39,0-.58,0-2.93,0-6.03.21-9.22.64l-8.99,1.19-.45,9.05c-.03.69-.1,1.52-.2,2.53-1.36-2.23-3.27-4.37-5.94-6.18-4.1-2.79-8.97-4.2-14.47-4.2-.81,0-1.64.03-2.47.09-2.33.17-4.61.53-6.85,1.07.14-.51.27-1.03.41-1.56.76-2.95,1.28-5.24,1.57-7.01.39-2.37.52-4.24.39-5.91-.48-6.54-4.54-11.91-11.13-14.73-4.27-1.83-9.81-2.73-16.91-2.73-3.62,0-7.75.23-12.29.69l-9.45.96-.28,8.48c-1.17-1.13-2.35-2.07-3.47-2.85-5.86-4.1-12.89-6.17-20.88-6.17-1.16,0-2.36.04-3.57.13-12.38.91-24.26,5.76-35.32,14.43-10.63,8.34-19.05,18.81-25.01,31.11-6.08,12.54-8.7,25.22-7.78,37.68,1.04,14.15,6.08,25,15,32.26,7.72,6.29,17.07,9.48,27.78,9.48,1.35,0,2.74-.05,4.12-.15,12.02-.88,23.97-5.42,35.59-13.5.77.97,1.64,1.87,2.6,2.71,3.37,2.91,7.47,4.78,12.17,5.56,2.29.38,4.67.57,7.08.57,1.37,0,2.77-.06,4.16-.18,3.68-.33,7.26-1,10.65-2l8-2.37-.14-5.3c.65.61,1.34,1.18,2.06,1.71,2.53,1.84,5.36,3.19,8.4,4,2.24.61,4.63.91,7.09.91.74,0,1.51-.03,2.27-.08h.04s.04,0,.04,0c8.89-.72,17.23-4.26,24.93-10.57.54.6,1.1,1.18,1.71,1.71,4.26,3.81,9.6,5.83,15.46,5.83.64,0,1.3-.02,1.96-.07,6.9-.51,13.44-3.37,19.55-8.54,4.14,3.6,9.45,5.5,15.47,5.5.73,0,1.48-.03,2.24-.08,5.64-.41,11.23-2.43,16.6-6,3.52-2.34,6.89-5.23,10.04-8.63,3,3.54,6.6,6.25,10.77,8.08,4.33,1.91,9.2,2.88,14.47,2.88,1.09,0,2.23-.04,3.36-.13,10.89-.8,20.87-5.15,29.73-12.95,4.35-.4,8.55-1.68,12.49-3.8,1.1-.59,2.16-1.22,3.18-1.89,3.3,4.66,7.5,8.13,12.51,10.33,4.33,1.91,9.2,2.88,14.47,2.88,1.1,0,2.23-.04,3.36-.13,10.89-.8,20.87-5.15,29.73-12.95,4.22-.39,8.3-1.6,12.14-3.61,1.14,1.72,2.49,3.29,4.05,4.7.31.28.62.55.94.81-.19.28-.37.56-.53.83-5.05,8.18-6.41,17.72-3.73,26.17,2.44,7.66,7.89,13.63,15.37,16.81,2.38,1.01,7.37,2.71,14.11,2.71,8.1,0,15.88-2.53,22.49-7.31,8.63-6.25,15.29-17.51,19.81-33.47,1.9-6.7,3.01-12.8,3.61-16.73,13.14-11.62,22.48-23.74,27.81-36.07l.98-2.27,1.64-3.8-1.3-3.93c-1.03-3.12-3.68-7.26-10.4-9.27-1.99-.6-3.97-.9-5.89-.9-1.62,0-3.2.21-4.72.64-1.45-5.85-5.19-10.56-10.81-13.51-3.77-1.98-8.41-2.94-14.19-2.94-2.9,0-6.17.25-9.74.74l-8.54,1.17-.51,5.4c-3.85-2.74-9.53-4.73-17.91-4.73-3.05,0-6.48.25-10.19.76l-8.88,1.2-.52,8.95c0,.07,0,.14-.01.21-.5-.56-1.03-1.1-1.58-1.61-4.77-4.43-10.63-6.77-16.93-6.77-.64,0-1.28.02-1.93.07-.32.02-.63.05-.94.08,1.22-5.75,1.26-8.24,1.13-10.07-.15-2.11-.44-3.89-.87-5.44-.73-2.6-2.15-5.01-4.37-7.38-2.22-2.37-5.1-4.17-8.57-5.35-2.48-.84-5.68-1.52-9.78-2.06-3.82-.5-8.22-.75-13.47-.75h0ZM285.71,662.14c-1.26,0-1.59-.32-1.84-.56-.42-.4-1.27-2.15-1.54-5.91-.35-4.79.46-10.1,2.41-15.79,1.21,1.25,2.54,2.35,3.99,3.3,3.83,2.51,8.09,3.78,12.67,3.78.6,0,1.21-.02,1.81-.07,2.33-.17,5.02-.65,7.86-1.71-2.46,3.13-5.5,6.18-9.1,9.11-5.9,4.81-11.32,7.51-15.67,7.83-.2.01-.4.02-.58.02h0Z" /></g><g><path class="cls-1" d="M315.43,810.69c-9.43,0-17.62-2.78-24.35-8.26-7.71-6.27-12.08-15.84-13.01-28.43-.84-11.5,1.6-23.24,7.25-34.91,5.59-11.55,13.49-21.37,23.47-29.2,10.19-7.99,21.07-12.46,32.36-13.29,1.07-.08,2.14-.12,3.17-.12,6.86,0,12.83,1.75,17.76,5.19,5.76,4.03,9.09,9.95,9.9,17.62,1.23-7.24,1.93-13.27,2.09-18.03l.16-4.75,4.73-.48c4.36-.44,8.31-.67,11.74-.67,14.4,0,22.01,4.18,22.62,12.42.09,1.23-.02,2.69-.33,4.61-.27,1.62-.75,3.76-1.47,6.54-.69,2.64-1.37,5.15-2.02,7.47-.34,1.2-.76,2.68-1.25,4.46,4.86-2.7,10-4.26,15.38-4.65.7-.05,1.4-.08,2.07-.08,4.39,0,8.23,1.09,11.4,3.25,2.8,1.91,6.24,5.59,6.73,12.34.32,4.39-.94,10.62-3.85,19.04-1.12,3.23-1.87,5.67-2.38,7.5,2.39-2.76,5.89-7.94,10.48-17.68,2.18-9.69,3.41-17.01,3.65-21.78l.22-4.53,4.49-.59c2.96-.39,5.82-.59,8.5-.59h.53c2.97.03,5.98.39,8.94,1.06,3.58.81,6.6,2.4,8.95,4.73,2.59,2.56,4.05,5.8,4.33,9.63.04.6.06,1.35-.02,2.39.97-4.72,1.62-9.39,1.94-13.94l.31-4.56,4.55-.47c2.34-.25,4.63-.37,6.8-.37.6,0,1.18,0,1.77.03,2.75.09,5.58.42,8.41.98,3.52.7,6.48,2.13,8.79,4.24,2.59,2.37,4.1,5.57,4.37,9.26.15,2.07-.14,5.71-3.33,16.91.41-.77.79-1.52,1.13-2.24l2.05-4.29c1.86-5.69,5.01-10.98,9.38-15.74,8.3-9.04,18.49-14.06,30.27-14.92,1.02-.07,2.03-.11,3.01-.11,6.49,0,12.2,1.64,16.99,4.87,3.64,2.46,6.31,5.52,7.92,9.04l.44-1.62c4.47-16.3,6.92-30.5,7.27-42.2l.14-4.77,4.75-.48c3.77-.38,7.2-.57,10.18-.57,5.35,0,9.47.6,12.6,1.84,5.88,2.33,9.35,6.75,9.77,12.43.19,2.6-.38,6.1-1.8,11.02l-.65,2.25,3.88.24c16.62,1.01,25.38,6.12,26.04,15.17.11,1.46-.04,2.99-.44,4.61l1.52-.47c1.17-.36,2.41-.55,3.69-.55,1.46,0,3,.24,4.58.72,3.7,1.12,6.05,3.12,6.98,5.95l.68,2.07-7.04,14.79c-1.68,3.52-3.9,7.48-6.62,11.76-2.75,4.33-5.55,8.13-8.32,11.31-2.92,3.35-6.28,6.29-10,8.73-4.08,2.69-8.29,4.2-12.5,4.51-.53.04-1.06.06-1.58.06h0c-5.95,0-11.32-2.45-15.98-7.29-.75-.78-1.46-1.61-2.14-2.51-.11,1.78-.15,3.43-.1,4.93l.13,4.27-4.12,1.14c-3.63,1.01-6.92,1.7-9.8,2.05-1.41.17-2.82.26-4.19.26-1.65,0-3.3-.13-4.91-.38-3.76-.59-6.83-2.24-9.11-4.93-.78-.92-1.45-1.95-1.99-3.09-1.14.91-2.32,1.8-3.52,2.65-7.43,5.3-15.39,8.29-23.66,8.9-.98.07-1.95.11-2.9.11-7.67,0-14.4-2.33-20.03-6.93-2.34-1.92-4.32-4.15-5.91-6.69-.3.39-.6.77-.9,1.15-3.69,4.61-7.73,8.38-12,11.22-4.59,3.04-9.3,4.76-14,5.11-.62.05-1.24.07-1.84.07-5.19,0-9.49-1.68-12.78-4.99-.89-.9-1.68-1.86-2.37-2.88-6.35,6.73-13.14,10.4-20.27,10.92-.53.04-1.05.06-1.56.06-4.56,0-8.54-1.49-11.84-4.44-1.78-1.6-3.19-3.62-4.22-6.04-8.11,8.22-16.98,12.76-26.48,13.53-.67.05-1.3.07-1.91.07-1.99,0-3.9-.25-5.7-.73-2.39-.64-4.62-1.7-6.61-3.15-2.21-1.6-3.98-3.8-5.24-6.53-1.14-2.47-1.84-5.31-2.07-8.45-.22-3.05.04-6.54.79-10.38.15-.77.31-1.52.47-2.25-.67,1.8-1.25,3.53-1.73,5.18-2.15,8.08-3.15,15.56-2.98,22.23l.11,4.17-4,1.18c-3.04.9-6.27,1.51-9.57,1.8-1.24.11-2.49.17-3.7.17-2.11,0-4.19-.17-6.19-.5-3.7-.61-6.9-2.06-9.5-4.31-2.1-1.81-3.57-4.1-4.34-6.73-.62.5-1.24.98-1.87,1.46-11.77,8.9-23.86,13.87-35.93,14.75-1.26.09-2.51.14-3.73.14ZM327.79,741.48c-1.46,2.69-2.77,5.63-3.92,8.81-2.46,6.79-3.49,13.18-3.06,19.01.33,4.47,1.43,7.73,3.19,9.42,1.47,1.42,3.26,2.08,5.61,2.08.32,0,.65-.01.98-.04,5.54-.41,11.83-3.45,18.7-9.04,7.09-5.77,12.24-12.02,15.31-18.58.83-3.35,1.64-6.62,2.42-9.8.34-1.43.66-2.84.97-4.22-.65,1.22-1.39,2.42-2.19,3.6-5.02,7.38-11.44,11.4-19.09,11.96-.48.03-.95.05-1.42.05-3.51,0-6.77-.97-9.69-2.89-3.25-2.13-5.75-5.3-7.43-9.43l-.39-.95ZM560.84,755.28c-.13,1.07-.16,2.12-.08,3.17.2,2.71,1.18,3.67,1.51,3.98.45.44,1.11.88,2.56.88.18,0,.37,0,.56-.02,2.59-.19,5.42-1.35,8.46-3.47-.31.02-.63.02-.94.02-4.48,0-8.53-1.53-12.07-4.57ZM644.18,753.23c.24.39.4.51.4.51l.12-.03c.67-.05,3.17-.64,7.44-6.23,1.74-2.28,3.36-4.65,4.86-7.1-3.25,3.99-7.53,8.28-12.82,12.85ZM336.97,729.63c-1.11.93-2.28,2.09-3.48,3.49-.17.2-.35.41-.52.62,1.56-1.32,2.9-2.69,4-4.1Z" /><path d="M614.83,685.38c4.61,0,8.14.49,10.6,1.46,3.96,1.57,6.08,4.16,6.34,7.77.14,1.89-.4,4.93-1.6,9.12-1.21,4.19-3.08,10.67-5.61,19.46-2.53,8.79-4.66,16.16-6.38,22.13,11-11.46,15.55-18.27,20.11-32.17,13.53.82,20.51,4.2,20.95,10.14.57,7.71-10.53,19.19-21.44,28.22,1.2,5.1,3.46,7.66,6.8,7.66.16,0,.33,0,.5-.02,3.52-.26,7.31-3.04,11.37-8.36,4.06-5.31,7.46-11.01,10.21-17.09l.68-1.47c.65-.2,1.35-.3,2.09-.3.93,0,1.94.16,3.01.48,1.91.58,3.04,1.39,3.39,2.44l-1.06,2.22c-1.78,3.73-3.46,7.26-5.05,10.61-1.59,3.34-3.69,7.07-6.3,11.18-2.61,4.11-5.22,7.66-7.83,10.66-2.61,2.99-5.57,5.58-8.89,7.76-3.32,2.18-6.62,3.39-9.91,3.63-.4.03-.79.04-1.18.04-4.43,0-8.46-1.87-12.07-5.62-3.93-4.08-6.76-10.21-8.48-18.38-2.27,10.28-3.31,18.53-3.11,24.74-3.39.94-6.39,1.57-9.01,1.89-1.19.15-2.37.22-3.53.22-1.38,0-2.74-.1-4.07-.31-2.45-.38-4.38-1.41-5.8-3.08-1.42-1.67-2.24-4.01-2.46-7.02-.07-.95-.03-2.07.12-3.34-3.11,3.26-6.6,6.27-10.47,9.02-6.64,4.73-13.61,7.37-20.9,7.9-.85.06-1.68.09-2.51.09-6.41,0-11.94-1.9-16.58-5.7-4.12-3.37-6.8-7.95-8.06-13.72-2.04,3.16-4.19,6.16-6.45,8.98-3.35,4.19-6.94,7.55-10.76,10.08-3.82,2.53-7.62,3.94-11.39,4.21-.49.04-.97.05-1.44.05-3.71,0-6.68-1.13-8.92-3.38-2.52-2.54-3.93-5.83-4.23-9.87-.01-.17-.02-.3-.03-.39-7.18,10.56-14.73,16.13-22.64,16.71-.39.03-.78.04-1.16.04-3.2,0-5.93-1.02-8.2-3.05-2.54-2.28-4.01-6-4.39-11.16-.07-1.01-.08-2.16-.02-3.45-9.19,12.91-19.31,19.83-30.36,20.73-.5.04-.99.05-1.47.05-1.51,0-2.94-.18-4.27-.54-1.77-.47-3.38-1.24-4.84-2.3-1.46-1.06-2.63-2.53-3.5-4.41-.87-1.88-1.4-4.07-1.58-6.56-.19-2.58.05-5.56.71-8.94.66-3.38,1.46-6.38,2.39-9,.93-2.62,1.76-5.17,2.49-7.64.73-2.47,1.06-4.18.99-5.13-.11-1.45-.8-2.17-2.09-2.17-.09,0-.18,0-.28.01-1.63.12-3.31,1.11-5.04,2.96-1.72,1.86-3.26,4.17-4.61,6.95-1.35,2.78-2.48,5.35-3.39,7.71-.91,2.36-1.67,4.6-2.3,6.72-2.31,8.64-3.37,16.59-3.18,23.84-2.71.8-5.55,1.33-8.51,1.6-1.09.1-2.16.14-3.22.14-1.82,0-3.59-.14-5.3-.43-2.71-.45-4.99-1.47-6.84-3.07-1.85-1.59-2.86-3.68-3.05-6.26-.1-1.37.1-3.38.6-6.01.24-1.26.51-2.56.82-3.88-3.42,3.94-7.23,7.5-11.41,10.67-10.98,8.3-21.99,12.86-33.05,13.67-1.13.08-2.24.12-3.33.12-8.18,0-15.15-2.35-20.92-7.04-6.53-5.31-10.2-13.52-11.01-24.62-.78-10.58,1.46-21.29,6.72-32.14,5.26-10.85,12.57-19.94,21.93-27.29,9.36-7.34,19.16-11.39,29.4-12.14.95-.07,1.87-.1,2.77-.1,5.75,0,10.63,1.4,14.65,4.21,4.65,3.25,7.21,8.14,7.69,14.68.49,6.62-1.3,12.92-5.36,18.88-4.06,5.96-9.06,9.16-14.99,9.6-.34.03-.68.04-1.02.04-2.44,0-4.68-.67-6.72-2-2.32-1.52-4.11-3.83-5.37-6.93,3.79-2.61,6.75-5.47,8.91-8.57,2.15-3.1,3.16-5.59,3.02-7.49-.13-1.84-1.1-2.76-2.89-2.76-.14,0-.28,0-.43.02-3.96.29-8.11,2.95-12.45,7.98-4.35,5.03-7.88,11.32-10.61,18.87-2.73,7.55-3.86,14.64-3.37,21.26.44,5.93,2.05,10.25,4.84,12.94,2.49,2.41,5.62,3.61,9.39,3.61.45,0,.91-.02,1.38-.05,6.71-.49,13.95-3.91,21.74-10.24,7.79-6.34,13.4-13.19,16.83-20.56l.2-.43c.88-3.53,1.73-6.98,2.54-10.33,4.48-19.09,6.88-33.49,7.21-43.2,4.19-.43,7.92-.64,11.19-.64,11.1,0,16.83,2.46,17.19,7.38.06.77-.04,1.88-.27,3.33-.24,1.44-.7,3.47-1.37,6.07-.67,2.6-1.34,5.05-1.99,7.34-.65,2.3-1.59,5.67-2.82,10.13-1.23,4.46-2.29,8.23-3.19,11.32,7.72-9.13,16.31-14.04,25.77-14.73.57-.04,1.13-.06,1.68-.06,3.3,0,6.08.77,8.35,2.31,2.64,1.8,4.1,4.54,4.37,8.24.26,3.61-.92,9.23-3.56,16.86-2.64,7.63-3.88,12.56-3.71,14.8.15,2.03,1.03,3.04,2.64,3.04.1,0,.2,0,.31-.01,5.35-.39,11.75-8.54,19.18-24.45,2.34-10.32,3.65-18.08,3.9-23.29,2.74-.36,5.34-.54,7.8-.54.15,0,.31,0,.46,0,2.6.03,5.19.33,7.79.92,2.59.59,4.71,1.69,6.34,3.3,1.63,1.61,2.54,3.66,2.72,6.16.18,2.41-.82,7.74-2.98,15.98-2.16,8.25-3.16,13.53-2.99,15.85.13,1.81.72,2.72,1.75,2.72.04,0,.09,0,.14,0,1.81-.13,3.86-2.23,6.15-6.29,2.3-4.06,4.38-9.23,6.26-15.51,2.42-8.3,3.9-16.41,4.44-24.32,2.16-.23,4.24-.34,6.23-.34.54,0,1.07,0,1.6.03,2.47.08,4.98.37,7.52.88,2.54.51,4.6,1.48,6.18,2.92,1.58,1.44,2.45,3.32,2.62,5.64.16,2.24-1,7.64-3.48,16.21-2.48,8.57-3.66,13.8-3.52,15.69.12,1.64.69,2.46,1.72,2.46.05,0,.1,0,.15,0,1.63-.12,3.85-2.27,6.66-6.45,2.81-4.18,5.01-7.95,6.61-11.3.75-1.57,1.49-3.11,2.2-4.62,1.61-5.09,4.38-9.78,8.32-14.07,7.37-8.02,16.25-12.41,26.66-13.18.89-.07,1.76-.1,2.61-.1,5.41,0,10.06,1.31,13.95,3.94,4.5,3.04,6.93,6.97,7.29,11.79.3,4.13-.97,8.01-3.82,11.63-2.85,3.63-6.38,5.59-10.59,5.9-.35.03-.69.04-1.03.04-3.62,0-6.84-1.44-9.66-4.31,3.75-4.34,5.51-7.93,5.31-10.77-.09-1.29-.71-1.93-1.85-1.93-.08,0-.16,0-.24,0-2.5.18-5.06,2.66-7.69,7.44-2.63,4.78-3.78,9.44-3.45,14,.23,3.18,1.28,5.68,3.14,7.49,1.66,1.61,3.77,2.42,6.35,2.42.31,0,.64-.01.96-.04,5.34-.39,11.02-3.5,17.04-9.33,3.87-3.75,7.23-7.91,10.1-12.5.36-1.3.74-2.7,1.15-4.2,1.66-6.03,2.87-10.46,3.65-13.29,4.61-16.8,7.1-31.29,7.47-43.48,3.61-.36,6.82-.54,9.64-.54M614.83,674.5s0,0,0,0c-3.16,0-6.77.2-10.73.6l-9.5.95-.29,9.54c-.28,9.15-1.9,19.94-4.83,32.17-.74-.6-1.52-1.18-2.33-1.73-5.7-3.85-12.44-5.81-20.04-5.81-1.11,0-2.26.04-3.41.13-13.21.97-24.61,6.58-33.88,16.67-.53.58-1.04,1.16-1.54,1.75-1.04-2.25-2.51-4.27-4.38-5.98-3.06-2.79-6.89-4.66-11.4-5.56-3.13-.62-6.26-.98-9.3-1.08-.64-.02-1.29-.03-1.94-.03-2.35,0-4.82.13-7.36.4l-9.1.95-.36,5.25c-2.56-1.82-5.52-3.11-8.84-3.87-3.33-.76-6.73-1.16-10.08-1.19-.2,0-.38,0-.57,0-2.93,0-6.03.21-9.23.64l-8.99,1.19-.45,9.05c-.03.69-.1,1.52-.2,2.53-1.36-2.23-3.27-4.37-5.94-6.18-4.1-2.79-8.97-4.2-14.47-4.2-.81,0-1.64.03-2.47.09-2.33.17-4.61.53-6.85,1.07.14-.51.27-1.03.41-1.56.76-2.95,1.28-5.24,1.57-7.01.39-2.37.52-4.24.39-5.91-.48-6.54-4.54-11.91-11.13-14.73-4.27-1.83-9.81-2.73-16.91-2.73-3.61,0-7.75.23-12.29.69l-9.46.96-.28,8.49c-1.17-1.13-2.35-2.07-3.47-2.85-5.86-4.1-12.89-6.17-20.88-6.17-1.16,0-2.36.04-3.57.13-12.38.91-24.27,5.76-35.32,14.43-10.63,8.34-19.05,18.81-25.01,31.11-6.08,12.54-8.7,25.22-7.78,37.68,1.04,14.15,6.08,25.01,15,32.26,7.72,6.29,17.07,9.48,27.78,9.48,1.35,0,2.73-.05,4.12-.15,12.02-.88,23.97-5.42,35.59-13.5.77.97,1.64,1.87,2.6,2.71,3.38,2.91,7.47,4.79,12.17,5.56,2.29.38,4.68.57,7.08.57,1.37,0,2.77-.06,4.17-.19,3.68-.33,7.26-1,10.65-2l8-2.37-.14-5.3c.65.61,1.34,1.18,2.06,1.71,2.53,1.84,5.36,3.19,8.4,4,2.24.61,4.63.91,7.09.91.74,0,1.51-.03,2.27-.08h.04s.04,0,.04,0c8.89-.72,17.23-4.26,24.92-10.57.54.6,1.1,1.18,1.71,1.71,4.26,3.81,9.6,5.83,15.46,5.83.64,0,1.3-.02,1.96-.07,6.9-.51,13.44-3.37,19.55-8.54,4.14,3.6,9.45,5.5,15.47,5.5.73,0,1.48-.03,2.24-.08,5.64-.41,11.23-2.43,16.6-6,3.43-2.27,6.7-5.07,9.78-8.35.82.82,1.68,1.61,2.6,2.36,6.62,5.41,14.52,8.15,23.47,8.15,1.08,0,2.19-.04,3.3-.12,8.96-.66,17.57-3.79,25.59-9.31,3,3.05,6.93,5.02,11.45,5.73,1.88.29,3.81.44,5.74.44,1.6,0,3.23-.1,4.86-.3,3.15-.39,6.71-1.13,10.59-2.21l8.23-2.29-.04-1.32c3.9,2.15,8.15,3.26,12.57,3.26.65,0,1.32-.02,1.98-.07,5.14-.38,10.22-2.19,15.09-5.39,4.13-2.72,7.87-5.98,11.12-9.7,2.95-3.38,5.91-7.41,8.8-11.97,2.84-4.46,5.17-8.61,6.94-12.34l.46-.96,4.59-9.64,1.06-2.22,1.87-3.93-1.36-4.14c-1.04-3.18-3.72-7.4-10.58-9.47-1.92-.58-3.82-.89-5.66-.94-.64-4.16-3.08-10.46-11.51-14.54-4.27-2.07-9.75-3.39-16.69-4.01.79-3.5-4.12-6.73-4.29-9.13-.57-7.77-.19-13.54-8-16.64-3.79-1.5-8.56-2.23-14.61-2.23h0ZM329.62,775.37c-1.26,0-1.59-.32-1.84-.56-.42-.4-1.27-2.15-1.54-5.91-.35-4.79.46-10.1,2.41-15.79,1.21,1.25,2.54,2.35,3.99,3.3,3.83,2.51,8.09,3.78,12.67,3.78.6,0,1.21-.02,1.81-.07,2.33-.17,5.02-.65,7.86-1.71-2.46,3.13-5.5,6.18-9.1,9.11-5.9,4.81-11.32,7.51-15.67,7.83-.2.01-.4.02-.58.02h0Z" /></g></g></svg>